<?xml version="1.0" standalone="no"?>
<!DOCTYPE svg PUBLIC "-//W3C//DTD SVG 20010904//EN"
 "http://www.w3.org/TR/2001/REC-SVG-20010904/DTD/svg10.dtd">
<svg version="1.0" xmlns="http://www.w3.org/2000/svg"
 width="562.000000pt" height="444.000000pt" viewBox="0 0 562.000000 444.000000"
 preserveAspectRatio="xMidYMid meet">

<g transform="translate(0.000000,444.000000) scale(0.100000,-0.100000)"
fill="#000000" stroke="none">
<path d="M2458 4283 c8 -257 -23 -362 -186 -628 -150 -245 -202 -363 -229
-524 -16 -93 -16 -107 -1 -218 9 -65 13 -122 9 -126 -12 -12 -67 58 -101 128
-39 79 -59 160 -67 269 -8 108 -15 94 -39 -71 -12 -79 -17 -184 -17 -318 -1
-183 2 -209 26 -306 66 -269 168 -424 368 -560 72 -49 204 -105 269 -115 l45
-6 -92 61 c-107 71 -152 120 -198 216 -57 118 -69 180 -69 355 0 151 17 294
35 306 5 3 9 -17 9 -43 0 -27 7 -75 15 -107 16 -59 60 -146 75 -146 5 0 8 55
7 123 -1 116 0 126 31 202 18 44 44 98 57 120 154 255 194 369 180 528 -4 51
-3 77 4 77 19 0 152 -133 212 -211 66 -87 149 -238 174 -319 10 -30 20 -59 24
-65 12 -20 17 92 8 170 -13 110 -12 163 2 208 14 41 52 92 82 107 17 10 18 6
12 -53 -9 -101 30 -200 142 -362 80 -115 101 -159 121 -242 12 -49 14 -92 10
-153 l-6 -85 20 30 c25 37 50 121 51 172 1 21 4 49 9 63 28 94 34 -322 7 -445
-28 -123 -95 -253 -170 -328 -34 -35 -83 -78 -109 -97 -27 -18 -47 -35 -45
-36 8 -9 100 22 156 52 200 105 394 342 467 569 59 186 83 429 64 652 -7 82
-15 144 -16 138 -2 -5 -13 -62 -24 -125 -21 -123 -59 -217 -105 -260 -23 -22
-25 -22 -25 -4 1 10 7 48 15 84 40 181 -11 387 -144 583 -234 347 -289 475
-276 640 6 76 6 78 -13 68 -36 -19 -91 -93 -113 -150 -29 -78 -34 -153 -16
-241 21 -98 28 -210 19 -285 -10 -85 -29 -79 -61 20 -65 193 -205 435 -350
600 -63 73 -237 235 -251 235 -4 0 -4 -66 -2 -147z"/>
<path d="M965 3467 c-15 -24 -97 -211 -222 -507 -158 -377 -215 -574 -229
-794 -6 -88 -5 -106 7 -106 8 0 48 -16 89 -36 l75 -36 91 22 92 23 5 176 c6
202 14 244 107 526 96 291 104 331 105 480 0 147 -11 198 -54 244 -35 37 -46
38 -66 8z"/>
<path d="M4605 3476 c-41 -28 -69 -105 -73 -198 -8 -156 22 -301 125 -601 80
-235 93 -302 93 -488 l0 -156 93 -23 92 -22 75 36 c41 20 81 36 89 36 11 0 13
17 7 102 -16 234 -89 480 -251 853 -31 72 -83 191 -115 265 -98 229 -95 224
-135 196z"/>
<path d="M1205 3335 c-33 -58 -38 -77 -46 -173 -12 -134 -33 -223 -108 -454
-97 -299 -104 -332 -105 -500 -1 -80 2 -149 5 -153 4 -3 23 -3 42 0 l34 7 6
136 c8 193 29 263 168 551 39 80 81 183 95 230 27 93 41 239 30 314 -7 48 -47
107 -71 107 -8 0 -30 -29 -50 -65z"/>
<path d="M4323 3358 c-27 -40 -28 -46 -28 -172 0 -158 17 -215 124 -437 139
-288 160 -358 168 -550 l6 -137 35 -6 c20 -3 38 -3 41 0 4 3 6 72 5 152 -1
168 -8 201 -105 500 -74 227 -96 318 -108 453 -6 58 -15 119 -21 135 -16 43
-61 104 -76 104 -8 0 -26 -19 -41 -42z"/>
<path d="M1406 3163 c-11 -139 -40 -233 -125 -412 -95 -200 -135 -302 -161
-422 -20 -91 -26 -224 -11 -247 6 -10 25 -12 81 -6 l72 7 -5 56 c-2 31 -1 99
4 151 17 187 59 339 134 490 90 181 116 280 95 358 -10 40 -53 102 -70 102 -5
0 -11 -35 -14 -77z"/>
<path d="M4171 3216 c-12 -13 -29 -46 -37 -72 -26 -85 -4 -173 91 -364 90
-181 124 -321 132 -536 l6 -161 60 -7 c110 -11 101 -20 94 97 -13 201 -38 284
-173 567 -91 191 -119 282 -130 423 -3 42 -9 77 -13 77 -4 0 -18 -11 -30 -24z"/>
<path d="M1506 2857 c-49 -88 -111 -232 -134 -313 -32 -109 -44 -209 -40 -353
l3 -135 67 -12 c36 -7 77 -18 90 -26 20 -11 -5 -14 -187 -19 -115 -3 -241 -12
-280 -18 -87 -15 -188 -40 -198 -50 -17 -17 125 -95 283 -157 112 -43 260 -90
420 -134 279 -77 447 -155 508 -239 26 -35 24 -35 -78 15 -89 43 -188 74 -440
138 -118 30 -251 66 -295 81 -115 39 -272 115 -389 189 -314 197 -496 236
-683 145 -35 -17 -77 -47 -96 -69 -33 -39 -62 -106 -48 -114 3 -2 33 -11 66
-20 362 -93 632 -232 805 -412 75 -79 187 -230 206 -277 18 -47 -22 -11 -231
211 -65 69 -153 137 -163 127 -7 -7 57 -115 114 -192 110 -147 223 -246 470
-411 149 -99 207 -162 279 -302 54 -105 54 -106 127 -147 215 -124 498 -244
733 -312 61 -18 119 -35 129 -38 19 -5 19 2 12 245 -12 450 -53 662 -173 899
-89 175 -212 314 -483 543 -187 158 -238 221 -328 408 l-47 97 -3 145 c-4 152
0 178 52 354 30 103 32 126 10 171 -25 54 -40 51 -78 -18z"/>
<path d="M4064 2912 c-18 -12 -44 -69 -44 -98 0 -15 13 -70 29 -123 42 -135
51 -198 51 -335 0 -100 -4 -132 -23 -186 -35 -98 -100 -205 -202 -328 -5 -7
-80 -74 -165 -150 -196 -173 -300 -277 -372 -373 -200 -262 -249 -465 -274
-1128 -6 -155 -4 -183 7 -179 8 3 66 20 129 38 63 17 189 61 280 97 172 68
478 219 519 256 12 12 41 57 62 101 75 151 129 209 304 321 162 104 235 162
330 260 75 77 180 217 219 293 14 27 14 32 2 32 -25 0 -108 -73 -216 -191
-112 -122 -158 -165 -167 -156 -9 9 55 114 117 191 116 143 255 258 407 334
130 66 324 137 483 177 36 9 68 19 71 21 4 2 2 20 -4 39 -27 88 -142 167 -273
187 -134 21 -302 -35 -519 -170 -222 -139 -385 -204 -734 -293 -214 -55 -355
-100 -435 -139 -44 -22 -81 -38 -83 -36 -2 2 17 24 42 49 57 58 234 146 365
183 206 58 546 167 607 194 90 41 225 123 216 131 -10 8 -179 43 -288 60 -44
6 -151 12 -237 13 -95 1 -153 5 -148 10 5 5 44 17 87 26 l78 16 7 70 c21 195
-36 454 -148 675 -53 104 -66 121 -80 111z"/>
</g>
</svg>
